<svg width="310" height="68" viewBox="0 0 310 68" fill="none" xmlns="http://www.w3.org/2000/svg">
<rect x="3.53553" y="33.9812" width="43.0566" height="43.0566" transform="rotate(-45 3.53553 33.9812)" stroke="white" stroke-width="5"/>
<rect x="35.5731" y="33.9812" width="43.0566" height="43.0566" transform="rotate(-45 35.5731 33.9812)" stroke="white" stroke-width="5"/>
<path d="M155.229 26.9414L153.189 28.5059C152.064 27.041 150.711 25.9336 149.129 25.1836C147.559 24.4219 145.83 24.041 143.943 24.041C141.881 24.041 139.971 24.5391 138.213 25.5352C136.455 26.5195 135.09 27.8496 134.117 29.5254C133.156 31.1895 132.676 33.0645 132.676 35.1504C132.676 38.3027 133.754 40.9336 135.91 43.043C138.078 45.1523 140.809 46.207 144.102 46.207C147.723 46.207 150.752 44.7891 153.189 41.9531L155.229 43.5C153.939 45.1406 152.328 46.4121 150.395 47.3145C148.473 48.2051 146.322 48.6504 143.943 48.6504C139.42 48.6504 135.852 47.1445 133.238 44.1328C131.047 41.5898 129.951 38.5195 129.951 34.9219C129.951 31.1367 131.275 27.9551 133.924 25.377C136.584 22.7871 139.912 21.4922 143.908 21.4922C146.322 21.4922 148.502 21.9727 150.447 22.9336C152.393 23.8828 153.986 25.2188 155.229 26.9414ZM169.08 28.3828C172.021 28.3828 174.459 29.4492 176.393 31.582C178.15 33.5273 179.029 35.8301 179.029 38.4902C179.029 41.1621 178.098 43.5 176.234 45.5039C174.383 47.4961 171.998 48.4922 169.08 48.4922C166.15 48.4922 163.754 47.4961 161.891 45.5039C160.039 43.5 159.113 41.1621 159.113 38.4902C159.113 35.8418 159.992 33.5449 161.75 31.5996C163.684 29.4551 166.127 28.3828 169.08 28.3828ZM169.08 30.791C167.041 30.791 165.289 31.5469 163.824 33.0586C162.359 34.5703 161.627 36.3984 161.627 38.543C161.627 39.9258 161.961 41.2148 162.629 42.4102C163.297 43.6055 164.199 44.5312 165.336 45.1875C166.473 45.832 167.721 46.1543 169.08 46.1543C170.439 46.1543 171.688 45.832 172.824 45.1875C173.961 44.5312 174.863 43.6055 175.531 42.4102C176.199 41.2148 176.533 39.9258 176.533 38.543C176.533 36.3984 175.795 34.5703 174.318 33.0586C172.854 31.5469 171.107 30.791 169.08 30.791ZM192.67 28.3828C195.611 28.3828 198.049 29.4492 199.982 31.582C201.74 33.5273 202.619 35.8301 202.619 38.4902C202.619 41.1621 201.688 43.5 199.824 45.5039C197.973 47.4961 195.588 48.4922 192.67 48.4922C189.74 48.4922 187.344 47.4961 185.48 45.5039C183.629 43.5 182.703 41.1621 182.703 38.4902C182.703 35.8418 183.582 33.5449 185.34 31.5996C187.273 29.4551 189.717 28.3828 192.67 28.3828ZM192.67 30.791C190.631 30.791 188.879 31.5469 187.414 33.0586C185.949 34.5703 185.217 36.3984 185.217 38.543C185.217 39.9258 185.551 41.2148 186.219 42.4102C186.887 43.6055 187.789 44.5312 188.926 45.1875C190.062 45.832 191.311 46.1543 192.67 46.1543C194.029 46.1543 195.277 45.832 196.414 45.1875C197.551 44.5312 198.453 43.6055 199.121 42.4102C199.789 41.2148 200.123 39.9258 200.123 38.543C200.123 36.3984 199.385 34.5703 197.908 33.0586C196.443 31.5469 194.697 30.791 192.67 30.791ZM207.189 21.4922H209.668V36.5742L218.51 28.875H222.131L211.637 37.998L222.746 48H219.266L209.668 39.4043V48H207.189V21.4922ZM234.893 30.9668L233.311 32.6016C231.998 31.3242 230.715 30.6855 229.461 30.6855C228.664 30.6855 227.979 30.9492 227.404 31.4766C226.842 32.0039 226.561 32.6191 226.561 33.3223C226.561 33.9434 226.795 34.5352 227.264 35.0977C227.732 35.6719 228.717 36.3457 230.217 37.1191C232.045 38.0684 233.287 38.9824 233.943 39.8613C234.588 40.752 234.91 41.7539 234.91 42.8672C234.91 44.4375 234.359 45.7676 233.258 46.8574C232.156 47.9473 230.779 48.4922 229.127 48.4922C228.025 48.4922 226.971 48.252 225.963 47.7715C224.967 47.291 224.141 46.6289 223.484 45.7852L225.031 44.0273C226.285 45.4453 227.615 46.1543 229.021 46.1543C230.006 46.1543 230.844 45.8379 231.535 45.2051C232.227 44.5723 232.572 43.8281 232.572 42.9727C232.572 42.2695 232.344 41.6426 231.887 41.0918C231.43 40.5527 230.398 39.873 228.793 39.0527C227.07 38.1621 225.898 37.2832 225.277 36.416C224.656 35.5488 224.346 34.5586 224.346 33.4453C224.346 31.9922 224.838 30.7852 225.822 29.8242C226.818 28.8633 228.072 28.3828 229.584 28.3828C231.342 28.3828 233.111 29.2441 234.893 30.9668ZM239.639 22.1426H242.24V32.9883H255.389V22.1426H257.99V48H255.389V35.5195H242.24V48H239.639V22.1426ZM263.562 28.875H266.041V37.8047C266.041 39.9844 266.158 41.4844 266.393 42.3047C266.744 43.4766 267.412 44.4023 268.396 45.082C269.393 45.7617 270.576 46.1016 271.947 46.1016C273.318 46.1016 274.479 45.7734 275.428 45.1172C276.389 44.4492 277.051 43.5762 277.414 42.498C277.66 41.7598 277.783 40.1953 277.783 37.8047V28.875H280.297V38.2617C280.297 40.8984 279.986 42.8848 279.365 44.2207C278.756 45.5566 277.83 46.6055 276.588 47.3672C275.357 48.1172 273.811 48.4922 271.947 48.4922C270.084 48.4922 268.525 48.1172 267.271 47.3672C266.029 46.6055 265.098 45.5508 264.477 44.2031C263.867 42.8438 263.562 40.8047 263.562 38.0859V28.875ZM285.939 48V21.4922H288.383V32.1621C289.414 30.8965 290.568 29.9531 291.846 29.332C293.123 28.6992 294.523 28.3828 296.047 28.3828C298.754 28.3828 301.062 29.3672 302.973 31.3359C304.895 33.293 305.855 35.6719 305.855 38.4727C305.855 41.2383 304.889 43.5996 302.955 45.5566C301.021 47.5137 298.695 48.4922 295.977 48.4922C294.418 48.4922 293.006 48.1582 291.74 47.4902C290.475 46.8223 289.355 45.8203 288.383 44.4844V48H285.939ZM295.783 46.1191C297.154 46.1191 298.42 45.7852 299.58 45.1172C300.74 44.4375 301.66 43.4883 302.34 42.2695C303.031 41.0508 303.377 39.7617 303.377 38.4023C303.377 37.043 303.031 35.748 302.34 34.5176C301.648 33.2871 300.717 32.332 299.545 31.6523C298.385 30.9609 297.143 30.6152 295.818 30.6152C294.471 30.6152 293.188 30.9609 291.969 31.6523C290.762 32.332 289.83 33.252 289.174 34.4121C288.529 35.5723 288.207 36.8789 288.207 38.332C288.207 40.5469 288.934 42.3984 290.387 43.8867C291.852 45.375 293.65 46.1191 295.783 46.1191Z" fill="white"/>
</svg>
